<svg width="15" height="15" viewBox="0 0 15 15" fill="none" xmlns="http://www.w3.org/2000/svg">
<path d="M6.64468 1.41199C7.03389 0.76947 7.96611 0.76947 8.35532 1.41199L10.0901 4.27588C10.2294 4.50577 10.4553 4.66993 10.717 4.73133L13.9768 5.49623C14.7081 5.66784 14.9962 6.55443 14.5054 7.12314L12.3178 9.65802C12.1422 9.8615 12.0559 10.1271 12.0783 10.395L12.3582 13.7316C12.421 14.4802 11.6668 15.0281 10.9743 14.7371L7.88743 13.4398C7.63964 13.3357 7.36036 13.3357 7.11257 13.4398L4.02574 14.7371C3.3332 15.0281 2.57902 14.4802 2.64181 13.7316L2.92168 10.395C2.94414 10.1271 2.85784 9.8615 2.68223 9.65802L0.494598 7.12314C0.00379428 6.55443 0.291864 5.66784 1.02321 5.49623L4.28301 4.73133C4.54469 4.66993 4.77063 4.50577 4.90989 4.27588L6.64468 1.41199Z" fill="#D3D3D3"/>
</svg>
